<svg xmlns="http://www.w3.org/2000/svg" xmlns:xlink="http://www.w3.org/1999/xlink" width="1920" zoomAndPan="magnify" viewBox="0 0 1440 809.999993" height="1080" preserveAspectRatio="xMidYMid meet" version="1.0"><defs><g/></defs><g fill="#000000" fill-opacity="1"><g transform="translate(249.121854, 307.509722)"><g><path d="M -227.765625 196.0625 C -229.242188 193.28125 -230.117188 190.773438 -230.390625 188.546875 C -230.671875 186.316406 -230.8125 183.070312 -230.8125 178.8125 L -230.8125 24.46875 C -230.8125 11.675781 -227.289062 4.171875 -220.25 1.953125 C -216.726562 0.835938 -212.28125 0.28125 -206.90625 0.28125 C -201.53125 0.28125 -197.265625 0.742188 -194.109375 1.671875 C -190.953125 2.597656 -188.539062 3.707031 -186.875 5 C -185.207031 6.300781 -183.910156 8.15625 -182.984375 10.5625 C -182.054688 13.71875 -181.59375 18.539062 -181.59375 25.03125 L -181.59375 118.1875 C -176.957031 112.4375 -170.191406 103.304688 -161.296875 90.796875 C -152.398438 78.285156 -146.742188 70.453125 -144.328125 67.296875 C -141.921875 64.148438 -140.253906 61.972656 -139.328125 60.765625 C -138.398438 59.554688 -136.128906 57.882812 -132.515625 55.75 C -128.898438 53.625 -125.003906 52.5625 -120.828125 52.5625 C -116.660156 52.5625 -112.859375 53.535156 -109.421875 55.484375 C -105.992188 57.429688 -103.539062 59.332031 -102.0625 61.1875 L -99.828125 64.234375 C -96.128906 68.867188 -88.804688 78.738281 -77.859375 93.84375 C -66.921875 108.957031 -60.988281 117.070312 -60.0625 118.1875 L -60.0625 24.46875 C -60.0625 20.207031 -59.921875 17.007812 -59.640625 14.875 C -59.367188 12.75 -58.492188 10.382812 -57.015625 7.78125 C -54.234375 2.78125 -47 0.28125 -35.3125 0.28125 C -24.007812 0.28125 -16.96875 2.78125 -14.1875 7.78125 C -12.695312 10.382812 -11.8125 12.796875 -11.53125 15.015625 C -11.257812 17.242188 -11.125 20.582031 -11.125 25.03125 L -11.125 179.375 C -11.125 183.632812 -11.257812 186.828125 -11.53125 188.953125 C -11.8125 191.085938 -12.695312 193.546875 -14.1875 196.328125 C -16.96875 201.148438 -24.195312 203.5625 -35.875 203.5625 C -40.875 203.5625 -45.179688 202.957031 -48.796875 201.75 C -52.421875 200.550781 -54.785156 199.300781 -55.890625 198 L -57.5625 196.328125 L -120.6875 113.46875 C -152.207031 155.175781 -173.25 182.707031 -183.8125 196.0625 C -186.96875 201.0625 -194.429688 203.5625 -206.203125 203.5625 C -217.972656 203.5625 -225.160156 201.0625 -227.765625 196.0625 Z M -227.765625 196.0625 "/></g></g></g><g fill="#000000" fill-opacity="1"><g transform="translate(251.967976, 502.488249)"><g><path d="M 6.953125 -73.140625 C 6.953125 -95.390625 14.738281 -113.742188 30.3125 -128.203125 C 45.882812 -142.660156 63.679688 -149.890625 83.703125 -149.890625 C 103.722656 -149.890625 121.425781 -142.703125 136.8125 -128.328125 C 152.207031 -113.960938 159.90625 -95.660156 159.90625 -73.421875 C 159.90625 -58.023438 155.914062 -44.347656 147.9375 -32.390625 C 139.96875 -20.429688 130.28125 -11.625 118.875 -5.96875 C 107.476562 -0.320312 95.660156 2.5 83.421875 2.5 C 71.191406 2.5 59.328125 -0.507812 47.828125 -6.53125 C 36.335938 -12.5625 26.648438 -21.460938 18.765625 -33.234375 C 10.890625 -45.003906 6.953125 -58.304688 6.953125 -73.140625 Z M 65.0625 -53.25 C 71 -48.707031 77.023438 -46.4375 83.140625 -46.4375 C 89.265625 -46.4375 95.382812 -48.753906 101.5 -53.390625 C 107.625 -58.023438 110.6875 -64.882812 110.6875 -73.96875 C 110.6875 -83.050781 107.8125 -89.816406 102.0625 -94.265625 C 96.3125 -98.722656 90.097656 -100.953125 83.421875 -100.953125 C 76.753906 -100.953125 70.546875 -98.632812 64.796875 -94 C 59.046875 -89.363281 56.171875 -82.546875 56.171875 -73.546875 C 56.171875 -64.554688 59.132812 -57.789062 65.0625 -53.25 Z M 65.0625 -53.25 "/></g></g></g><g fill="#000000" fill-opacity="1"><g transform="translate(418.817565, 502.488249)"><g><path d="M 110.671875 -144.890625 C 114.203125 -143.773438 117.125 -141.875 119.4375 -139.1875 C 121.757812 -136.5 122.921875 -132.1875 122.921875 -126.25 C 122.921875 -120.320312 121.15625 -113.832031 117.625 -106.78125 C 114.101562 -99.738281 109.007812 -96.21875 102.34375 -96.21875 C 99 -96.21875 95.796875 -96.957031 92.734375 -98.4375 C 89.679688 -99.925781 85.648438 -100.671875 80.640625 -100.671875 C 75.640625 -100.671875 70.957031 -98.910156 66.59375 -95.390625 C 62.238281 -91.867188 60.0625 -87.601562 60.0625 -82.59375 L 60.0625 -24.1875 C 60.0625 -19.925781 59.921875 -16.726562 59.640625 -14.59375 C 59.367188 -12.46875 58.492188 -10.015625 57.015625 -7.234375 C 54.234375 -2.410156 47 0 35.3125 0 C 26.414062 0 20.019531 -1.578125 16.125 -4.734375 C 13.164062 -7.328125 11.5 -11.3125 11.125 -16.6875 C 11.125 -18.539062 11.125 -21.226562 11.125 -24.75 L 11.125 -122.359375 C 11.125 -126.617188 11.257812 -129.816406 11.53125 -131.953125 C 11.8125 -134.085938 12.601562 -136.453125 13.90625 -139.046875 C 16.5 -144.054688 23.726562 -146.5625 35.59375 -146.5625 C 46.71875 -146.5625 53.671875 -144.425781 56.453125 -140.15625 C 58.492188 -137.1875 59.515625 -134.128906 59.515625 -130.984375 C 60.441406 -132.273438 61.785156 -133.847656 63.546875 -135.703125 C 65.304688 -137.554688 69.054688 -140.0625 74.796875 -143.21875 C 80.546875 -146.375 85.597656 -147.953125 89.953125 -147.953125 C 94.316406 -147.953125 97.976562 -147.71875 100.9375 -147.25 C 103.90625 -146.789062 107.148438 -146.003906 110.671875 -144.890625 Z M 110.671875 -144.890625 "/></g></g></g><g fill="#000000" fill-opacity="1"><g transform="translate(537.558627, 502.488249)"><g><path d="M 109.421875 -207.59375 C 110.816406 -210.28125 113.273438 -212.179688 116.796875 -213.296875 C 120.316406 -214.410156 125 -214.96875 130.84375 -214.96875 C 136.6875 -214.96875 141.367188 -214.410156 144.890625 -213.296875 C 148.410156 -212.179688 150.863281 -210.234375 152.25 -207.453125 C 153.644531 -204.671875 154.476562 -202.210938 154.75 -200.078125 C 155.03125 -197.953125 155.171875 -194.757812 155.171875 -190.5 L 155.171875 -24.46875 C 155.171875 -20.207031 155.03125 -17.007812 154.75 -14.875 C 154.476562 -12.75 153.601562 -10.382812 152.125 -7.78125 C 149.34375 -2.78125 141.507812 -0.28125 128.625 -0.28125 C 115.738281 -0.28125 108.550781 -4.820312 107.0625 -13.90625 C 99.28125 -5.007812 88.4375 -0.5625 74.53125 -0.5625 C 57.84375 -0.5625 42.640625 -7.835938 28.921875 -22.390625 C 15.203125 -36.941406 8.34375 -53.90625 8.34375 -73.28125 C 8.34375 -92.65625 15.25 -109.664062 29.0625 -124.3125 C 42.875 -138.957031 58.03125 -146.28125 74.53125 -146.28125 C 88.25 -146.28125 98.910156 -141.644531 106.515625 -132.375 L 106.515625 -190.765625 C 106.515625 -195.035156 106.648438 -198.234375 106.921875 -200.359375 C 107.203125 -202.492188 108.035156 -204.90625 109.421875 -207.59375 Z M 64.234375 -56.453125 C 69.054688 -51.441406 74.894531 -48.9375 81.75 -48.9375 C 88.613281 -48.9375 94.316406 -51.441406 98.859375 -56.453125 C 103.398438 -61.460938 105.671875 -66.976562 105.671875 -73 C 105.671875 -79.019531 103.492188 -84.625 99.140625 -89.8125 C 94.785156 -95.007812 88.898438 -97.609375 81.484375 -97.609375 C 74.066406 -97.609375 68.132812 -95.054688 63.6875 -89.953125 C 59.238281 -84.859375 57.015625 -79.253906 57.015625 -73.140625 C 57.015625 -67.023438 59.421875 -61.460938 64.234375 -56.453125 Z M 64.234375 -56.453125 "/></g></g></g><g fill="#000000" fill-opacity="1"><g transform="translate(703.852044, 502.488249)"><g><path d="M 227.765625 -196.0625 C 229.242188 -193.28125 230.117188 -190.773438 230.390625 -188.546875 C 230.671875 -186.316406 230.8125 -183.070312 230.8125 -178.8125 L 230.8125 -24.46875 C 230.8125 -11.675781 227.289062 -4.171875 220.25 -1.953125 C 216.726562 -0.835938 212.28125 -0.28125 206.90625 -0.28125 C 201.53125 -0.28125 197.265625 -0.742188 194.109375 -1.671875 C 190.953125 -2.597656 188.539062 -3.707031 186.875 -5 C 185.207031 -6.300781 183.910156 -8.15625 182.984375 -10.5625 C 182.054688 -13.71875 181.59375 -18.539062 181.59375 -25.03125 L 181.59375 -118.1875 C 176.957031 -112.4375 170.191406 -103.304688 161.296875 -90.796875 C 152.398438 -78.285156 146.742188 -70.453125 144.328125 -67.296875 C 141.921875 -64.148438 140.253906 -61.972656 139.328125 -60.765625 C 138.398438 -59.554688 136.128906 -57.882812 132.515625 -55.75 C 128.898438 -53.625 125.003906 -52.5625 120.828125 -52.5625 C 116.660156 -52.5625 112.859375 -53.535156 109.421875 -55.484375 C 105.992188 -57.429688 103.539062 -59.332031 102.0625 -61.1875 L 99.828125 -64.234375 C 96.128906 -68.867188 88.804688 -78.738281 77.859375 -93.84375 C 66.921875 -108.957031 60.988281 -117.070312 60.0625 -118.1875 L 60.0625 -24.46875 C 60.0625 -20.207031 59.921875 -17.007812 59.640625 -14.875 C 59.367188 -12.75 58.492188 -10.382812 57.015625 -7.78125 C 54.234375 -2.78125 47 -0.28125 35.3125 -0.28125 C 24.007812 -0.28125 16.96875 -2.78125 14.1875 -7.78125 C 12.695312 -10.382812 11.8125 -12.796875 11.53125 -15.015625 C 11.257812 -17.242188 11.125 -20.582031 11.125 -25.03125 L 11.125 -179.375 C 11.125 -183.632812 11.257812 -186.828125 11.53125 -188.953125 C 11.8125 -191.085938 12.695312 -193.546875 14.1875 -196.328125 C 16.96875 -201.148438 24.195312 -203.5625 35.875 -203.5625 C 40.875 -203.5625 45.179688 -202.957031 48.796875 -201.75 C 52.421875 -200.550781 54.785156 -199.300781 55.890625 -198 L 57.5625 -196.328125 L 120.6875 -113.46875 C 152.207031 -155.175781 173.25 -182.707031 183.8125 -196.0625 C 186.96875 -201.0625 194.429688 -203.5625 206.203125 -203.5625 C 217.972656 -203.5625 225.160156 -201.0625 227.765625 -196.0625 Z M 227.765625 -196.0625 "/></g></g></g><g fill="#000000" fill-opacity="1"><g transform="translate(945.783888, 502.488249)"><g><path d="M 152.390625 -90.796875 C 152.390625 -79.390625 149.5625 -70.953125 143.90625 -65.484375 C 138.257812 -60.015625 132.003906 -57.28125 125.140625 -57.28125 L 59.234375 -57.28125 C 59.234375 -52.09375 62.289062 -47.738281 68.40625 -44.21875 C 74.53125 -40.695312 80.648438 -38.9375 86.765625 -38.9375 C 97.515625 -38.9375 105.953125 -40.046875 112.078125 -42.265625 L 115.125 -43.375 C 119.582031 -45.414062 123.289062 -46.4375 126.25 -46.4375 C 132.1875 -46.4375 137.285156 -42.265625 141.546875 -33.921875 C 143.960938 -28.921875 145.171875 -24.660156 145.171875 -21.140625 C 145.171875 -4.640625 125.425781 3.609375 85.9375 3.609375 C 72.21875 3.609375 60.023438 1.25 49.359375 -3.46875 C 38.703125 -8.195312 30.40625 -14.457031 24.46875 -22.25 C 12.789062 -37.257812 6.953125 -54.035156 6.953125 -72.578125 C 6.953125 -95.941406 14.503906 -114.617188 29.609375 -128.609375 C 44.722656 -142.609375 63.585938 -149.609375 86.203125 -149.609375 C 111.972656 -149.609375 130.882812 -140.523438 142.9375 -122.359375 C 149.238281 -112.722656 152.390625 -102.203125 152.390625 -90.796875 Z M 93.71875 -82.59375 C 100.757812 -82.59375 104.28125 -85.5625 104.28125 -91.5 C 104.28125 -95.757812 102.65625 -99.1875 99.40625 -101.78125 C 96.164062 -104.375 91.53125 -105.671875 85.5 -105.671875 C 79.476562 -105.671875 73.5 -103.210938 67.5625 -98.296875 C 61.632812 -93.390625 58.671875 -88.15625 58.671875 -82.59375 Z M 93.71875 -82.59375 "/></g></g></g><g fill="#000000" fill-opacity="1"><g transform="translate(1105.125279, 502.488249)"><g><path d="M 92.609375 -146.5625 C 111.148438 -146.5625 126.582031 -139.46875 138.90625 -125.28125 C 151.238281 -111.09375 157.40625 -93.804688 157.40625 -73.421875 L 157.40625 -24.46875 C 157.40625 -20.207031 157.265625 -17.007812 156.984375 -14.875 C 156.703125 -12.75 155.914062 -10.382812 154.625 -7.78125 C 152.03125 -2.78125 144.796875 -0.28125 132.921875 -0.28125 C 119.765625 -0.28125 112.164062 -3.707031 110.125 -10.5625 C 109.007812 -13.71875 108.453125 -18.445312 108.453125 -24.75 L 108.453125 -73.6875 C 108.453125 -81.289062 106.273438 -87.222656 101.921875 -91.484375 C 97.566406 -95.753906 91.726562 -97.890625 84.40625 -97.890625 C 77.082031 -97.890625 71.148438 -95.664062 66.609375 -91.21875 C 62.066406 -86.769531 59.796875 -80.925781 59.796875 -73.6875 L 59.796875 -24.46875 C 59.796875 -20.207031 59.65625 -17.007812 59.375 -14.875 C 59.09375 -12.75 58.210938 -10.382812 56.734375 -7.78125 C 54.316406 -2.78125 47.175781 -0.28125 35.3125 -0.28125 C 23.632812 -0.28125 16.5 -2.78125 13.90625 -7.78125 C 12.601562 -10.5625 11.8125 -13.019531 11.53125 -15.15625 C 11.257812 -17.289062 11.125 -20.488281 11.125 -24.75 L 11.125 -123.203125 C 11.125 -127.273438 11.257812 -130.375 11.53125 -132.5 C 11.8125 -134.632812 12.695312 -137.003906 14.1875 -139.609375 C 16.78125 -144.242188 23.914062 -146.5625 35.59375 -146.5625 C 46.90625 -146.5625 53.859375 -144.425781 56.453125 -140.15625 C 58.304688 -137.007812 59.234375 -133.207031 59.234375 -128.75 C 59.972656 -130.050781 61.640625 -131.90625 64.234375 -134.3125 C 66.835938 -136.726562 69.34375 -138.675781 71.75 -140.15625 C 78.050781 -144.425781 85.003906 -146.5625 92.609375 -146.5625 Z M 92.609375 -146.5625 "/></g></g></g><g fill="#000000" fill-opacity="1"><g transform="translate(1273.643349, 502.488249)"><g><path d="M 109.421875 -207.59375 C 110.816406 -210.28125 113.273438 -212.179688 116.796875 -213.296875 C 120.316406 -214.410156 125 -214.96875 130.84375 -214.96875 C 136.6875 -214.96875 141.367188 -214.410156 144.890625 -213.296875 C 148.410156 -212.179688 150.863281 -210.234375 152.25 -207.453125 C 153.644531 -204.671875 154.476562 -202.210938 154.75 -200.078125 C 155.03125 -197.953125 155.171875 -194.757812 155.171875 -190.5 L 155.171875 -24.46875 C 155.171875 -20.207031 155.03125 -17.007812 154.75 -14.875 C 154.476562 -12.75 153.601562 -10.382812 152.125 -7.78125 C 149.34375 -2.78125 141.507812 -0.28125 128.625 -0.28125 C 115.738281 -0.28125 108.550781 -4.820312 107.0625 -13.90625 C 99.28125 -5.007812 88.4375 -0.5625 74.53125 -0.5625 C 57.84375 -0.5625 42.640625 -7.835938 28.921875 -22.390625 C 15.203125 -36.941406 8.34375 -53.90625 8.34375 -73.28125 C 8.34375 -92.65625 15.25 -109.664062 29.0625 -124.3125 C 42.875 -138.957031 58.03125 -146.28125 74.53125 -146.28125 C 88.25 -146.28125 98.910156 -141.644531 106.515625 -132.375 L 106.515625 -190.765625 C 106.515625 -195.035156 106.648438 -198.234375 106.921875 -200.359375 C 107.203125 -202.492188 108.035156 -204.90625 109.421875 -207.59375 Z M 64.234375 -56.453125 C 69.054688 -51.441406 74.894531 -48.9375 81.75 -48.9375 C 88.613281 -48.9375 94.316406 -51.441406 98.859375 -56.453125 C 103.398438 -61.460938 105.671875 -66.976562 105.671875 -73 C 105.671875 -79.019531 103.492188 -84.625 99.140625 -89.8125 C 94.785156 -95.007812 88.898438 -97.609375 81.484375 -97.609375 C 74.066406 -97.609375 68.132812 -95.054688 63.6875 -89.953125 C 59.238281 -84.859375 57.015625 -79.253906 57.015625 -73.140625 C 57.015625 -67.023438 59.421875 -61.460938 64.234375 -56.453125 Z M 64.234375 -56.453125 "/></g></g></g></svg>