<svg id="emWOf3KMhYX1" xmlns="http://www.w3.org/2000/svg" xmlns:xlink="http://www.w3.org/1999/xlink" viewBox="0 0 1920 1080" shape-rendering="geometricPrecision" text-rendering="geometricPrecision" width="1920" height="1080"><defs><linearGradient id="emWOf3KMhYX2-fill" x1="0" y1="0.5" x2="1" y2="0.5" spreadMethod="pad" gradientUnits="objectBoundingBox" gradientTransform="translate(0 0)"><stop id="emWOf3KMhYX2-fill-0" offset="0%" stop-color="#77efff"/><stop id="emWOf3KMhYX2-fill-1" offset="100%" stop-color="#00e1ff"/></linearGradient><linearGradient id="emWOf3KMhYX3-fill" x1="0" y1="0.5" x2="1" y2="0.5" spreadMethod="pad" gradientUnits="objectBoundingBox" gradientTransform="translate(0 0)"><stop id="emWOf3KMhYX3-fill-0" offset="0%" stop-color="#00bfd8"/><stop id="emWOf3KMhYX3-fill-1" offset="100%" stop-color="#00a1b6"/></linearGradient></defs><path d="M-0.000002,208.120164c194.923831-22.036226,345.847748,28.849887,420.010839,28.8412c197.180239-.023096,268.004396-63.27583,465.182414-62.339386c176.203647.836832,205.455566,62.339386,614.549234,62.339386c141.372188,0,254.015395-62.339386,420.481636-62.339386c0,0-.224124-174.621983-.224124-174.621983h-1920c0,0,.000001,208.120169.000001,208.120169Z" transform="translate(.000003 4.246967)" fill="url(#emWOf3KMhYX2-fill)" stroke-width="3.84"/><path d="M-0.000002,208.120164c194.923831-22.036226,345.847748,28.849887,420.010839,28.8412c197.180239-.023096,268.004396-63.27583,465.182414-62.339386c176.203647.836832,205.455566,62.339386,614.549234,62.339386c141.372188,0,254.015395-62.339386,420.481636-62.339386c0,0-.224124-174.621983-.224124-174.621983h-1920c0,0,.000001,208.120169.000001,208.120169Z" transform="translate(.000003-7.753033)" fill="url(#emWOf3KMhYX3-fill)" stroke-width="3.84"/></svg>
