<svg id="dhefcaga" preserveAspectRatio="xMidYMid meet" viewBox="0 0 419.238 414.063"><g id="SvgjsG1007" fill="#111" featurekey="rootContainer"><path xmlns="http://www.w3.org/2000/svg" d="M104.6 41.3a52.2 52.2 0 0 0-3.5-11.2A51.1 51.1 0 0 0 44.3 1a49.6 49.6 0 0 0-5.7 1.5 49.1 49.1 0 0 0-7.9 2.7A51.6 51.6 0 0 0 6.3 77a53.7 53.7 0 0 0 4.1 6.4 57 57 0 0 0 5 5.7 51.7 51.7 0 0 0 55.3 11.5l3.3-1.4 3-1.5a50.9 50.9 0 0 0 5.8-3.8l2.7-2.1 1.2-1.1 1.1-.9 2-1.8.7-.6.6-.7 1.8-2a48.5 48.5 0 0 0 5.9-8.3 50.4 50.4 0 0 0 5.6-14.7 51.6 51.6 0 0 0 .2-20.4zM87.1 88.6l-1.2 1.1-1.2 1.1-2.6 2.1a49.5 49.5 0 0 1-5.7 3.6l-3 1.5-3.2 1.3-4.9 1.6h-.5a50.9 50.9 0 0 1-20.3.1 51.8 51.8 0 0 1-11.1-3.6A50.5 50.5 0 0 1 22.9 91a52 52 0 0 1-9.1-9.4 50.3 50.3 0 0 1-3.7-5.7c-.6-1-1.1-2-1.6-3.1s-1-2.1-1.3-3.2a50.6 50.6 0 0 1 8.6-50.8l.8-.8.5-.6.6-.6 1.2-1.1 2.4-2.1A50.5 50.5 0 0 1 62.4 3.2a48.5 48.5 0 0 1 14.7 5.2 47 47 0 0 1 8.3 5.8l2 1.8.7.6.6.7 1.8 2a49.7 49.7 0 0 1 11.3 22.9 50.8 50.8 0 0 1-.1 20.2 51.6 51.6 0 0 1-3.6 11 50.2 50.2 0 0 1-6.6 10.5l-2.1 2.4zm-44.9 13a50.1 50.1 0 0 1-13.7-5 51.8 51.8 0 0 1-6.2-4 55.2 55.2 0 0 1-5.5-4.8 49.9 49.9 0 0 1-11-53.2c.4-1.1.9-2.1 1.3-3.1l.6-1.3a50.2 50.2 0 0 0-3.4 11 51.3 51.3 0 0 0 2.4 28.5c.4 1.1.9 2.2 1.4 3.2s1 2.1 1.6 3.1a50.6 50.6 0 0 0 3.7 5.8 51.5 51.5 0 0 0 9.2 9.5 50.9 50.9 0 0 0 10.7 6.5 51 51 0 0 0 28.7 3.9 50.3 50.3 0 0 1-19.8-.1zm61.9-39.9a50.2 50.2 0 0 1-5.5 14.7 48.4 48.4 0 0 1-5.8 8.3l-1.8 2-.6.7-.7.6-1.9 1.7h.2l2.3-2.4 2.1-2.5A51.3 51.3 0 0 0 98.9 74a51.4 51.4 0 0 0 3.2-31.6 49.6 49.6 0 0 0-2.5-8.2 49.4 49.4 0 0 0-3.1-6.5 48.7 48.7 0 0 0-5.9-8.3l-1.8-2-.6-.7-.7-.6-2-1.8A49.9 49.9 0 0 0 77.3 8a49.3 49.3 0 0 0-6.5-3.2 49.8 49.8 0 0 0-8.2-2.6A52.2 52.2 0 0 0 49.9 1a50.8 50.8 0 0 1 22.7 3.2l3.2 1.3 3.1 1.6a50.1 50.1 0 0 1 5.7 3.7l2.6 2.1 1.2 1.1 1.2 1.1 2.3 2.3 2.1 2.4a50.4 50.4 0 0 1 6.5 10.5 51.6 51.6 0 0 1 3.6 11 51.1 51.1 0 0 1 0 20.3z" transform="matrix(3.9744554530272853,0,0,3.9744554530272853,-0.14910609175039674,0.11394855546207627)"/></g><g id="SvgjsG1008" fill="#111" featurekey="symbolFeature-0"><path xmlns="http://www.w3.org/2000/svg" d="M72.244,10.504 M46.98,51.944c-1.66-2.186-1.515-5.3,0.48-7.29c1.089-1.088,2.516-1.633,3.945-1.633 c1.427,0,2.855,0.544,3.942,1.633c2.179,2.177,2.179,5.712,0,7.889c-1.085,1.081-2.497,1.62-3.913,1.62 c-1.187,0-2.378-0.38-3.375-1.134L2.473,98.612C3.232,99.229,4.417,100,5.599,100c0.288,0,0.575-0.045,0.856-0.149 c2.577-0.961,1.63-4.257,1.63-4.257s24.499-16.188,48.274-16.188c0.991,0,1.98,0.028,2.968,0.086c0,0,2.482-6.681,14.313-26.706 c8.624-14.599,20.687-24.108,20.687-24.108s-2.849-6.661-10.121-13.47c-5.428-5.08-8.514-7.426-12.883-9.533l0,0 c0,0-9.506,12.064-24.111,20.688C27.186,38.19,20.506,40.674,20.506,40.674c1.468,24.66-16.101,51.247-16.101,51.247 s-0.59-0.169-1.343-0.169c-1.028,0-2.358,0.313-2.911,1.796c-0.538,1.44,0.475,3.037,1.242,3.979" transform="matrix(1.3192384306209313,0,0,1.3192384306209313,144.00016459797888,74.99839840839178)"/><path xmlns="http://www.w3.org/2000/svg" d="M98.086,26.831c-0.742,0-1.449-0.434-1.762-1.158c-0.026-0.063-2.814-6.409-9.668-12.827 c-5.451-5.101-8.351-7.251-12.407-9.204c-0.954-0.458-1.354-1.603-0.896-2.556c0.463-0.954,1.607-1.353,2.558-0.895 c4.46,2.146,7.584,4.449,13.365,9.857c7.476,7.002,10.447,13.826,10.568,14.113c0.418,0.972-0.033,2.095-1.004,2.512 C98.593,26.781,98.337,26.831,98.086,26.831L98.086,26.831z" transform="matrix(1.3192384306209313,0,0,1.3192384306209313,144.00016459797888,74.99839840839178)"/></g><g id="SvgjsG1009" fill="#111" featurekey="nameFeature-0"><path d="M4.52 40 c-0.32 0 -0.64 -0.08 -0.96 -0.16 c-0.28 -0.04 -0.52 -0.24 -0.72 -0.44 s-0.32 -0.4 -0.36 -0.68 c-0.04 -0.24 -0.04 -0.44 -0.08 -0.68 l0 -1.24 l0 -10.84 l0 -10.92 c0 -0.4 0 -0.84 0.04 -1.24 c0 -0.28 0.04 -0.52 0.12 -0.76 c0.12 -0.4 0.4 -0.68 0.76 -0.84 c0.24 -0.08 0.48 -0.16 0.76 -0.16 c0.28 -0.04 0.56 -0.04 0.84 -0.04 l8.04 0 c1.68 0 3.36 0.24 4.96 0.64 c1.48 0.36 2.8 1 4 1.88 c1.52 1.08 2.44 2.56 2.88 4.36 c0.28 1.12 0.32 2.28 0.12 3.44 c-0.2 1.24 -0.6 2.44 -1.24 3.52 c-0.2 0.32 -0.4 0.6 -0.64 0.88 c-1.16 1.36 -2.64 2.28 -4.36 2.92 c-1.24 0.48 -2.52 0.76 -3.84 0.92 c-0.72 0.08 -1.48 0.2 -2.2 0.24 c-0.36 0 -0.72 0.08 -1.08 0.12 c-0.12 0.04 -0.28 0.08 -0.44 0.16 c-0.32 0.16 -0.56 0.4 -0.72 0.76 c-0.12 0.28 -0.16 0.56 -0.2 0.84 l0 1.16 c-0.04 1.16 0 2.32 -0.04 3.48 l0 0.88 c-0.04 0.2 -0.08 0.44 -0.12 0.64 c-0.12 0.44 -0.4 0.72 -0.8 0.92 c-0.16 0.04 -0.32 0.12 -0.48 0.12 c-0.24 0.04 -0.52 0.12 -0.76 0.12 l-3.48 0 z M11.6 25.560000000000002 c0.32 0.04 0.64 0.04 0.96 0 c1.32 -0.04 2.44 -0.52 3.32 -1.52 c0.36 -0.4 0.6 -0.84 0.76 -1.32 c0.24 -0.92 0.16 -1.8 -0.2 -2.68 c-0.28 -0.68 -0.72 -1.2 -1.32 -1.6 c-1.04 -0.64 -2.16 -0.88 -3.32 -0.8 c-0.8 0.04 -1.4 0.6 -1.56 1.36 c-0.04 0.28 -0.04 0.52 -0.04 0.8 l0 1.8 l0 1.96 c0 0.28 0.04 0.56 0.12 0.84 c0.16 0.68 0.6 1.04 1.28 1.16 z M50.829 40.56 c-1.64 -0.12 -3.2 -0.48 -4.64 -1.28 c-2.16 -1.16 -3.72 -2.84 -4.64 -5.12 c-0.2 -0.44 -0.36 -0.88 -0.52 -1.36 c-0.12 -0.28 -0.24 -0.6 -0.36 -0.88 c-0.28 -0.52 -0.72 -0.84 -1.32 -0.92 c-0.24 0 -0.52 -0.04 -0.76 0 c-0.72 0.08 -1.32 0.64 -1.44 1.36 c-0.04 0.2 -0.08 0.44 -0.08 0.68 l0 1.16 l0 3.28 c-0.04 0.44 -0.04 0.84 -0.16 1.24 c-0.04 0.16 -0.08 0.32 -0.16 0.48 c-0.16 0.32 -0.44 0.52 -0.8 0.64 c-0.4 0.12 -0.8 0.16 -1.24 0.16 l-3.2 0 c-0.36 0 -0.76 -0.04 -1.12 -0.16 c-0.56 -0.16 -0.92 -0.52 -1.04 -1.04 c-0.08 -0.44 -0.12 -0.84 -0.16 -1.24 l0 -1.08 l0 -10.56 l0 -10.64 c0 -0.56 0 -1.16 0.12 -1.72 c0.04 -0.2 0.04 -0.4 0.12 -0.56 c0.16 -0.44 0.44 -0.72 0.88 -0.84 c0.24 -0.08 0.52 -0.12 0.76 -0.12 c0.28 -0.04 0.52 -0.04 0.8 -0.04 l7.92 0 c1.28 0 2.56 0.16 3.84 0.4 c0.92 0.16 1.84 0.44 2.68 0.8 c0.44 0.16 0.84 0.36 1.24 0.56 c1.16 0.56 2.08 1.4 2.84 2.4 c0.76 0.96 1.16 2.04 1.36 3.2 c0.08 0.36 0.12 0.76 0.16 1.12 c0 0.24 0.04 0.48 0 0.68 c-0.08 1.08 -0.24 2.12 -0.56 3.16 c-0.4 1.12 -1.04 2.12 -1.92 2.96 c-0.4 0.4 -0.84 0.72 -1.24 1.08 c-0.16 0.16 -0.36 0.32 -0.52 0.48 c-0.6 0.6 -0.72 1.32 -0.44 2.12 c0.28 0.72 0.8 1.24 1.44 1.64 c0.64 0.36 1.28 0.6 2 0.8 c0.32 0.08 0.68 0.16 1.04 0.24 c0.92 0.2 1.32 0.76 1.4 1.68 c0.04 0.16 0.04 0.32 0.04 0.48 l0 2.64 c0 0.28 -0.04 0.56 -0.08 0.84 c-0.12 0.56 -0.48 0.92 -1 1.12 c-0.4 0.12 -0.84 0.2 -1.24 0.16 z M38.749 25.72 c0.96 0.04 1.88 -0.16 2.72 -0.6 c0.72 -0.4 1.28 -0.96 1.72 -1.64 c0.08 -0.2 0.16 -0.36 0.24 -0.56 c0.64 -1.96 -0.2 -4 -2.12 -4.8 c-0.36 -0.16 -0.76 -0.28 -1.16 -0.4 c-0.56 -0.12 -1.08 -0.16 -1.64 -0.08 c-0.68 0.08 -1.12 0.44 -1.32 1.12 c-0.08 0.28 -0.12 0.6 -0.12 0.96 l0 1.92 l0 1.92 c0 0.28 0 0.52 0.08 0.76 c0.12 0.68 0.68 1.4 1.6 1.4 z M67.738 40.52 c-0.92 -0.08 -1.8 -0.2 -2.68 -0.36 c-1.64 -0.28 -3.12 -0.88 -4.48 -1.76 c-1.6 -1 -2.8 -2.36 -3.68 -4.04 c-0.8 -1.48 -1.24 -3.04 -1.52 -4.68 c-0.2 -1.2 -0.24 -2.44 -0.24 -3.68 l0 -1.24 c0.04 -1.6 0.36 -3.16 0.8 -4.68 c0.44 -1.44 1.12 -2.76 2.04 -3.96 c0.8 -1.08 1.76 -1.96 2.88 -2.72 c1.92 -1.2 4 -1.88 6.28 -1.96 l1.84 0 c1.92 0.08 3.8 0.48 5.56 1.24 c1.88 0.8 3.44 2.08 4.6 3.76 c1 1.48 1.64 3.16 2 4.92 c0.44 2.04 0.56 4.16 0.4 6.24 c-0.2 2.36 -0.72 4.6 -1.88 6.68 c-1.6 2.96 -4.04 4.92 -7.32 5.76 c-1 0.28 -2.04 0.44 -3.04 0.48 c-0.52 0.04 -1.04 0.04 -1.56 0 z M67.178 34.64 c1.2 0.32 2.32 0.2 3.36 -0.52 c0.36 -0.24 0.68 -0.56 0.96 -0.92 c0.32 -0.44 0.6 -0.92 0.84 -1.44 c0.48 -1.12 0.76 -2.32 0.88 -3.56 l0.12 -1.44 c0.04 -0.4 0.04 -0.84 0.04 -1.24 c-0.08 -1.16 -0.16 -2.32 -0.4 -3.48 c-0.16 -0.84 -0.44 -1.68 -0.88 -2.44 c-0.24 -0.52 -0.56 -0.96 -0.96 -1.32 c-0.68 -0.6 -1.44 -1 -2.32 -1.12 c-1.24 -0.16 -2.32 0.2 -3.2 1.08 c-0.68 0.64 -1.12 1.4 -1.44 2.28 c-0.28 0.76 -0.52 1.6 -0.64 2.4 c-0.12 1 -0.24 2 -0.2 2.96 c-0.04 0.96 0.04 1.84 0.16 2.76 c0.08 0.84 0.28 1.64 0.52 2.44 c0.2 0.64 0.48 1.2 0.84 1.76 c0.6 0.84 1.32 1.48 2.32 1.8 z M96.647 40.52 c-0.92 -0.08 -1.8 -0.2 -2.68 -0.36 c-1.64 -0.28 -3.12 -0.88 -4.48 -1.76 c-1.6 -1 -2.8 -2.36 -3.68 -4.04 c-0.8 -1.48 -1.24 -3.04 -1.52 -4.68 c-0.2 -1.2 -0.24 -2.44 -0.24 -3.68 l0 -1.24 c0.04 -1.6 0.36 -3.16 0.8 -4.68 c0.44 -1.44 1.12 -2.76 2.04 -3.96 c0.8 -1.08 1.76 -1.96 2.88 -2.72 c1.92 -1.2 4 -1.88 6.28 -1.96 l1.84 0 c1.92 0.08 3.8 0.48 5.56 1.24 c1.88 0.8 3.44 2.08 4.6 3.76 c1 1.48 1.64 3.16 2 4.92 c0.44 2.04 0.56 4.16 0.4 6.24 c-0.2 2.36 -0.72 4.6 -1.88 6.68 c-1.6 2.96 -4.04 4.92 -7.32 5.76 c-1 0.28 -2.04 0.44 -3.04 0.48 c-0.52 0.04 -1.04 0.04 -1.56 0 z M96.087 34.64 c1.2 0.32 2.32 0.2 3.36 -0.52 c0.36 -0.24 0.68 -0.56 0.96 -0.92 c0.32 -0.44 0.6 -0.92 0.84 -1.44 c0.48 -1.12 0.76 -2.32 0.88 -3.56 l0.12 -1.44 c0.04 -0.4 0.04 -0.84 0.04 -1.24 c-0.08 -1.16 -0.16 -2.32 -0.4 -3.48 c-0.16 -0.84 -0.44 -1.68 -0.88 -2.44 c-0.24 -0.52 -0.56 -0.96 -0.96 -1.32 c-0.68 -0.6 -1.44 -1 -2.32 -1.12 c-1.24 -0.16 -2.32 0.2 -3.2 1.08 c-0.68 0.64 -1.12 1.4 -1.44 2.28 c-0.28 0.76 -0.52 1.6 -0.64 2.4 c-0.12 1 -0.24 2 -0.2 2.96 c-0.04 0.96 0.04 1.84 0.16 2.76 c0.08 0.84 0.28 1.64 0.52 2.44 c0.2 0.64 0.48 1.2 0.84 1.76 c0.6 0.84 1.32 1.48 2.32 1.8 z M117.19600000000001 40 c-0.4 0 -0.76 -0.04 -1.16 -0.12 c-0.2 -0.04 -0.44 -0.12 -0.64 -0.2 c-0.32 -0.16 -0.56 -0.44 -0.68 -0.8 c-0.08 -0.32 -0.12 -0.68 -0.16 -1.04 l0 -1.08 l0 -10.8 l0 -10.84 c0 -0.36 0 -0.68 0.04 -1.04 c0 -0.32 0.04 -0.64 0.12 -0.96 c0.12 -0.44 0.44 -0.72 0.84 -0.92 c0.24 -0.08 0.48 -0.16 0.72 -0.16 c0.4 -0.04 0.8 -0.04 1.16 -0.04 l6 0 l7.04 0 c0.4 0 0.8 0 1.16 0.04 c0.32 0 0.6 0.04 0.88 0.12 c0.56 0.16 0.92 0.56 1.04 1.16 c0.04 0.12 0.08 0.28 0.08 0.44 l0 2.64 c0 0.24 -0.04 0.48 -0.12 0.76 c-0.12 0.4 -0.4 0.72 -0.84 0.84 c-0.24 0.08 -0.48 0.16 -0.76 0.16 c-0.36 0.04 -0.76 0.04 -1.16 0.04 l-5.32 0 c-0.36 0 -0.68 0 -1.04 0.04 c-0.28 0 -0.52 0.04 -0.76 0.12 c-0.6 0.2 -0.96 0.6 -1.12 1.2 c-0.04 0.16 -0.04 0.28 -0.08 0.4 c-0.04 0.68 -0.04 1.36 0 2.04 c0.04 0.16 0.04 0.32 0.12 0.48 c0.16 0.56 0.52 0.92 1.12 1.08 c0.24 0.04 0.48 0.08 0.76 0.08 l1.92 0 c0.6 0 1.16 0.04 1.72 0.12 c0.92 0.12 1.48 0.64 1.52 1.6 l0 2.88 c0 0.16 -0.04 0.28 -0.08 0.4 c-0.16 0.6 -0.52 1.04 -1.16 1.16 c-0.52 0.08 -1.08 0.12 -1.64 0.12 c-0.68 0 -1.36 0 -2.04 0.04 c-0.32 0 -0.64 0 -0.96 0.08 c-0.56 0.08 -0.96 0.44 -1.12 1.04 c-0.08 0.24 -0.12 0.48 -0.16 0.76 c-0.04 0.32 0 0.68 0 1.04 c-0.04 1.4 0 2.76 -0.04 4.16 c0 0.4 0 0.76 -0.04 1.16 c-0.04 0.24 -0.08 0.52 -0.16 0.76 c-0.12 0.36 -0.4 0.64 -0.8 0.8 c-0.16 0.08 -0.36 0.12 -0.56 0.12 c-0.32 0.08 -0.68 0.12 -1.04 0.12 l-2.6 0 z" transform="matrix(1.256553524720196,0,0,1.256553524720196,123.98427142083725,212.62502940281462)"/></g><g id="SvgjsG1010" fill="#111" featurekey="nameFeature-1"><path d="M2.76 40 c-0.32 0 -0.64 -0.04 -0.96 -0.12 c-0.16 0 -0.32 -0.04 -0.48 -0.12 c-0.4 -0.16 -0.64 -0.48 -0.68 -0.96 c0 -0.2 0 -0.44 0.08 -0.68 c0.08 -0.4 0.2 -0.8 0.32 -1.2 c1.16 -3.4 2.28 -6.84 3.4 -10.28 c1 -2.96 1.96 -5.92 2.92 -8.88 c0.4 -1.16 0.76 -2.32 1.16 -3.48 c0.12 -0.36 0.24 -0.68 0.4 -1 c0.32 -0.76 0.92 -1.12 1.72 -1.24 c0.28 -0.04 0.56 -0.04 0.88 -0.04 l1.92 0 l3.76 0 c0.36 0 0.72 0.04 1.08 0.08 c0.68 0.08 1.2 0.44 1.52 1.04 c0.16 0.36 0.32 0.68 0.44 1.08 c0.44 1.2 0.8 2.44 1.2 3.64 c0.44 1.28 0.84 2.52 1.24 3.76 c0.88 2.72 1.8 5.4 2.68 8.08 c0.8 2.44 1.6 4.92 2.4 7.36 c0.12 0.32 0.2 0.68 0.28 1.04 c0.08 0.2 0.08 0.44 0.12 0.64 c0 0.48 -0.28 0.88 -0.72 1.04 c-0.36 0.16 -0.68 0.2 -1.04 0.2 c-0.44 0.04 -0.84 0.04 -1.28 0.04 l-0.76 0 l-1.56 0 c-0.32 -0.04 -0.68 -0.08 -1.04 -0.12 c-0.76 -0.12 -1.28 -0.56 -1.56 -1.28 c-0.12 -0.28 -0.24 -0.6 -0.32 -0.88 c-0.12 -0.36 -0.24 -0.68 -0.36 -1 c-0.36 -0.84 -0.96 -1.36 -1.88 -1.44 c-0.32 -0.04 -0.6 -0.04 -0.88 -0.04 l-4.64 0 c-0.44 0 -0.84 0 -1.24 0.08 c-0.68 0.12 -1.12 0.48 -1.44 1.04 c-0.24 0.4 -0.36 0.84 -0.52 1.28 c-0.08 0.32 -0.2 0.68 -0.32 1 c-0.12 0.24 -0.24 0.44 -0.44 0.64 c-0.24 0.28 -0.56 0.48 -0.96 0.56 c-0.4 0.12 -0.84 0.16 -1.24 0.16 l-3.2 0 z M14.28 29.64 c0.44 -0.04 0.8 -0.04 1.16 -0.04 c0.28 -0.04 0.56 -0.08 0.84 -0.2 c0.4 -0.2 0.68 -0.48 0.72 -0.96 c0.04 -0.4 -0.04 -0.84 -0.12 -1.24 l-0.48 -1.68 c-0.28 -0.96 -0.56 -1.88 -0.84 -2.84 c-0.08 -0.32 -0.2 -0.64 -0.32 -0.92 c-0.08 -0.16 -0.2 -0.32 -0.32 -0.48 c-0.36 -0.4 -0.76 -0.4 -1.08 0 c-0.12 0.2 -0.24 0.4 -0.32 0.6 c-0.16 0.32 -0.28 0.64 -0.36 1 c-0.4 1.4 -0.8 2.76 -1.2 4.16 c-0.04 0.24 -0.12 0.44 -0.12 0.68 c-0.04 0.2 -0.04 0.44 -0.04 0.64 c0 0.32 0.16 0.56 0.36 0.76 c0.28 0.28 0.6 0.4 0.96 0.44 c0.4 0.04 0.84 0.04 1.16 0.08 z M34.469 40 c-0.32 0 -0.64 -0.08 -0.96 -0.12 c-0.16 0 -0.32 -0.04 -0.44 -0.12 c-0.4 -0.12 -0.68 -0.4 -0.8 -0.8 c-0.12 -0.28 -0.2 -0.6 -0.2 -0.92 c-0.04 -0.32 -0.04 -0.64 -0.04 -0.96 l0 -22.24 c0 -0.44 0 -0.92 0.08 -1.36 c0.12 -0.84 0.64 -1.32 1.48 -1.44 c0.24 0 0.52 -0.04 0.76 -0.04 l3.28 0 c0.2 0 0.4 0 0.6 0.04 c0.16 0.04 0.36 0.08 0.56 0.12 c0.48 0.16 0.8 0.52 0.96 1 c0.08 0.36 0.12 0.72 0.12 1.08 c0 0.32 0.04 0.68 0.04 1.04 l0 10.72 l0 10.76 c0 0.36 -0.04 0.68 -0.04 1.04 s-0.04 0.72 -0.16 1.08 c-0.12 0.4 -0.4 0.72 -0.8 0.88 c-0.16 0.04 -0.32 0.12 -0.48 0.12 c-0.32 0.04 -0.64 0.12 -0.96 0.12 l-3 0 z M48.33800000000001 40 c-0.52 0 -1 0 -1.52 -0.12 c-0.28 -0.08 -0.56 -0.2 -0.76 -0.4 c-0.24 -0.24 -0.4 -0.52 -0.44 -0.84 c-0.04 -0.24 -0.08 -0.44 -0.08 -0.68 l0 -1.16 l0 -10.84 l0 -10.8 l0 -1.28 c0.04 -0.24 0.04 -0.52 0.12 -0.76 c0.12 -0.44 0.44 -0.8 0.88 -0.96 c0.2 -0.04 0.44 -0.08 0.64 -0.12 c0.32 -0.04 0.6 -0.04 0.88 -0.04 l7.64 0 c1.8 0 3.52 0.28 5.24 0.76 c1.92 0.52 3.6 1.4 5.04 2.76 c1.04 1 1.84 2.16 2.4 3.48 c0.6 1.32 0.96 2.76 1.12 4.2 c0.16 0.96 0.28 1.92 0.24 2.88 c-0.04 1.4 -0.2 2.76 -0.52 4.12 c-0.44 1.8 -1.2 3.48 -2.32 4.92 c-1 1.32 -2.2 2.36 -3.64 3.16 c-1.76 0.96 -3.64 1.44 -5.64 1.6 c-1.32 0.12 -2.64 0.12 -3.96 0.12 l-5.32 0 z M54.97800000000001 34.36 c0.32 0.04 0.64 0 0.96 -0.08 c2.28 -0.44 3.88 -1.76 4.84 -3.88 c0.56 -1.12 0.8 -2.36 0.88 -3.64 l0 -1.92 c-0.04 -0.96 -0.2 -1.92 -0.48 -2.84 c-0.2 -0.76 -0.52 -1.44 -0.96 -2.08 c-0.4 -0.56 -0.84 -1 -1.4 -1.36 c-0.88 -0.6 -1.92 -0.92 -3 -0.96 c-0.32 -0.04 -0.68 0 -1.04 0.04 c-0.32 0 -0.6 0.16 -0.84 0.4 c-0.32 0.28 -0.52 0.68 -0.56 1.08 c-0.04 0.44 -0.04 0.84 -0.08 1.28 l0 5.6 l0 3.36 c0 0.84 0 1.68 0.04 2.52 c0 0.32 0 0.64 0.04 0.96 c0.12 0.92 0.68 1.44 1.6 1.52 z" transform="matrix(2.386271002801128,0,0,2.386271002801128,125.47278673457599,245.36475024211182)"/></g></svg>